<mxfile host="app.diagrams.net" modified="2023-01-17T08:16:03.125Z" agent="5.0 (Macintosh; Intel Mac OS X 10_15_7) AppleWebKit/537.36 (KHTML, like Gecko) Chrome/108.0.0.0 Safari/537.36" version="20.8.3" etag="pKWQ6hxA6TBQMyCxWRhY" type="github">
  <diagram id="joWWJ8hBhF5vcpHD5b1w" name="第 1 页">
    <mxGraphModel dx="1026" dy="608" grid="1" gridSize="10" guides="1" tooltips="1" connect="1" arrows="1" fold="1" page="1" pageScale="1" pageWidth="827" pageHeight="1169" math="0" shadow="0">
      <root>
        <mxCell id="0" />
        <mxCell id="1" parent="0" />
        <mxCell id="R5GqiRNrGUXXRdD93vd0-3" style="edgeStyle=orthogonalEdgeStyle;rounded=0;orthogonalLoop=1;jettySize=auto;html=1;exitX=1;exitY=0.5;exitDx=0;exitDy=0;" edge="1" parent="1" source="R5GqiRNrGUXXRdD93vd0-1" target="R5GqiRNrGUXXRdD93vd0-4">
          <mxGeometry relative="1" as="geometry">
            <mxPoint x="410" y="160" as="targetPoint" />
          </mxGeometry>
        </mxCell>
        <mxCell id="R5GqiRNrGUXXRdD93vd0-6" style="edgeStyle=orthogonalEdgeStyle;rounded=0;orthogonalLoop=1;jettySize=auto;html=1;exitX=0.5;exitY=1;exitDx=0;exitDy=0;entryX=0;entryY=0.5;entryDx=0;entryDy=0;" edge="1" parent="1" source="R5GqiRNrGUXXRdD93vd0-1" target="R5GqiRNrGUXXRdD93vd0-7">
          <mxGeometry relative="1" as="geometry">
            <mxPoint x="410" y="290" as="targetPoint" />
          </mxGeometry>
        </mxCell>
        <mxCell id="R5GqiRNrGUXXRdD93vd0-1" value="出库任务stock_task" style="rounded=1;whiteSpace=wrap;html=1;" vertex="1" parent="1">
          <mxGeometry x="180" y="130" width="120" height="60" as="geometry" />
        </mxCell>
        <mxCell id="R5GqiRNrGUXXRdD93vd0-8" style="edgeStyle=orthogonalEdgeStyle;rounded=0;orthogonalLoop=1;jettySize=auto;html=1;exitX=1;exitY=0.5;exitDx=0;exitDy=0;entryX=0;entryY=0.5;entryDx=0;entryDy=0;" edge="1" parent="1" source="R5GqiRNrGUXXRdD93vd0-2" target="R5GqiRNrGUXXRdD93vd0-9">
          <mxGeometry relative="1" as="geometry">
            <mxPoint x="390" y="390" as="targetPoint" />
          </mxGeometry>
        </mxCell>
        <mxCell id="R5GqiRNrGUXXRdD93vd0-11" style="edgeStyle=orthogonalEdgeStyle;rounded=0;orthogonalLoop=1;jettySize=auto;html=1;exitX=0.5;exitY=1;exitDx=0;exitDy=0;entryX=0;entryY=0.5;entryDx=0;entryDy=0;" edge="1" parent="1" source="R5GqiRNrGUXXRdD93vd0-2" target="R5GqiRNrGUXXRdD93vd0-10">
          <mxGeometry relative="1" as="geometry" />
        </mxCell>
        <mxCell id="R5GqiRNrGUXXRdD93vd0-2" value="出库单stock_task_process" style="rounded=1;whiteSpace=wrap;html=1;" vertex="1" parent="1">
          <mxGeometry x="180" y="360" width="120" height="60" as="geometry" />
        </mxCell>
        <mxCell id="R5GqiRNrGUXXRdD93vd0-4" value="出库任务上SKU明细stock_task_item" style="rounded=1;whiteSpace=wrap;html=1;" vertex="1" parent="1">
          <mxGeometry x="400" y="130" width="120" height="60" as="geometry" />
        </mxCell>
        <mxCell id="R5GqiRNrGUXXRdD93vd0-7" value="出库任务订单SKU明细" style="rounded=1;whiteSpace=wrap;html=1;dashed=1;" vertex="1" parent="1">
          <mxGeometry x="400" y="230" width="120" height="60" as="geometry" />
        </mxCell>
        <mxCell id="R5GqiRNrGUXXRdD93vd0-9" value="出库单SKU明细stock_task_process_detail" style="rounded=1;whiteSpace=wrap;html=1;" vertex="1" parent="1">
          <mxGeometry x="400" y="360" width="160" height="60" as="geometry" />
        </mxCell>
        <mxCell id="R5GqiRNrGUXXRdD93vd0-10" value="出库单订单SKU明细" style="rounded=1;whiteSpace=wrap;html=1;dashed=1;" vertex="1" parent="1">
          <mxGeometry x="400" y="470" width="120" height="60" as="geometry" />
        </mxCell>
      </root>
    </mxGraphModel>
  </diagram>
</mxfile>
